<svg id="Layer_1" data-name="Layer 1" xmlns="http://www.w3.org/2000/svg" viewBox="0 0 14.143 18.411">
  <defs>
    <style>
      .cls-1 {
        fill: #e6e6e5;
      }
    </style>
  </defs>
  <title>9bfc7f2e-ef11-4469-b3aa-c58195bf0068</title>
  <path class="cls-1" d="M13.038,13.69a0.931,0.931,0,0,1-.281.683l-1.366,1.366a0.97,0.97,0,0,1-1.366,0L7.072,12.786,4.118,15.739a0.97,0.97,0,0,1-1.366,0L1.386,14.374a0.97,0.97,0,0,1,0-1.366l2.953-2.953L1.386,7.1a0.97,0.97,0,0,1,0-1.366L2.752,4.369a0.97,0.97,0,0,1,1.366,0L7.072,7.322l2.953-2.953a0.97,0.97,0,0,1,1.366,0l1.366,1.366a0.97,0.97,0,0,1,0,1.366L9.8,10.054l2.953,2.953A0.93,0.93,0,0,1,13.038,13.69Z" transform="translate(0)"/>
</svg>
