<svg id="Layer_1" data-name="Layer 1" xmlns="http://www.w3.org/2000/svg" viewBox="0 0 217.354 53.838">
  <defs>
    <style>
      .cls-1 {
        fill: #fff;
      }
    </style>
  </defs>
  <title>036d98cb-d99f-41a1-8466-31451885a17f</title>
  <path class="cls-1" d="M79.9,41.567V26a24.315,24.315,0,0,0-.16-2.936,6.088,6.088,0,0,0-.67-2.22,3.63,3.63,0,0,0-1.437-1.434,4.935,4.935,0,0,0-2.4-.512,4.382,4.382,0,0,0-3.9,1.775,7.821,7.821,0,0,0-1.213,4.507v16.39H62.274V12.954h7.6v3.551h0.32A10.8,10.8,0,0,1,73.324,13.5a9.1,9.1,0,0,1,4.982-1.229,8.448,8.448,0,0,1,8.368,5.122,11.922,11.922,0,0,1,4.055-3.927,10.914,10.914,0,0,1,5.27-1.2q4.79,0,7.153,2.9a11.469,11.469,0,0,1,2.364,7.478V41.567H97.6V26a24.315,24.315,0,0,0-.16-2.936,6.088,6.088,0,0,0-.671-2.22,3.618,3.618,0,0,0-1.437-1.434,4.931,4.931,0,0,0-2.4-.512,4.387,4.387,0,0,0-3.96,1.844,8.149,8.149,0,0,0-1.214,4.575V41.567H79.9Z"/>
  <path class="cls-1" d="M162.149,26a10.79,10.79,0,0,0-1.054-5.19q-1.053-1.911-4.311-1.912a5.473,5.473,0,0,0-4.28,1.775,6.491,6.491,0,0,0-1.6,4.507v16.39h-7.857V12.954h7.6v3.551h0.319a10.23,10.23,0,0,1,3.7-3.073,11.905,11.905,0,0,1,5.429-1.161q4.854,0,7.377,2.9A10.989,10.989,0,0,1,170,22.651V41.567h-7.856V26Z"/>
  <polygon class="cls-1" points="7.856 23.812 7.856 0.851 0 0.851 0 41.567 7.856 41.567 7.856 29.002 7.856 23.812"/>
  <polygon class="cls-1" points="16.598 25.696 28.679 12.827 19.582 12.827 9.297 23.943 9.297 26.957 20.383 41.567 28.824 41.567 16.598 25.696"/>
  <path class="cls-1" d="M181.65,8.719A4.84,4.84,0,0,0,185.035,7.5a4.018,4.018,0,0,0,1.341-3.11,4.113,4.113,0,0,0-1.341-3.14,5.165,5.165,0,0,0-6.738,0,4.063,4.063,0,0,0-1.374,3.14A3.971,3.971,0,0,0,178.3,7.5a4.867,4.867,0,0,0,3.353,1.219"/>
  <path class="cls-1" d="M177.754,40.851q0,3.719-1.054,5.3a3.67,3.67,0,0,1-3.289,1.585,7.414,7.414,0,0,1-1.923-.24L169.8,53.047c0.363,0.1.723,0.211,1.092,0.3a16.387,16.387,0,0,0,3.992.488q5.429,0,8.08-3.048t2.65-8.537v-28.9h-7.856v27.5Z"/>
  <path class="cls-1" d="M209.562,30.572a7.53,7.53,0,0,1-.448,2.6,6.789,6.789,0,0,1-1.245,2.151,6.31,6.31,0,0,1-1.948,1.5,5.591,5.591,0,0,1-2.555.58,5.082,5.082,0,0,1-3.162-.99q-1.309-.988-1.309-3.517a5.481,5.481,0,0,1,.479-2.458,3.787,3.787,0,0,1,1.309-1.5,5.214,5.214,0,0,1,1.853-.751,11.066,11.066,0,0,1,2.171-.205,15.05,15.05,0,0,1,4.855.615v1.98ZM216.3,17.734a8.468,8.468,0,0,0-2.811-3.312,11.179,11.179,0,0,0-4.055-1.673,24.807,24.807,0,0,0-11.785.512,21.19,21.19,0,0,0-3.929,1.659l0.943,5.749A18.285,18.285,0,0,1,197.777,19a14.724,14.724,0,0,1,5.844-1.058,8.244,8.244,0,0,1,4.312.99,3.709,3.709,0,0,1,1.629,3.449V24.29a24.769,24.769,0,0,0-3.162-.649,26.9,26.9,0,0,0-3.737-.239,18.615,18.615,0,0,0-4.183.478,10.6,10.6,0,0,0-3.737,1.639,8.712,8.712,0,0,0-2.682,3.039,9.528,9.528,0,0,0-1.022,4.609,8.829,8.829,0,0,0,2.427,6.488,9.171,9.171,0,0,0,6.834,2.458,12.492,12.492,0,0,0,5.4-1.024,9.622,9.622,0,0,0,3.609-3h0.319q0.127,1.093.256,1.844a9.539,9.539,0,0,0,.447,1.639h7.026V23.129a12.1,12.1,0,0,0-1.054-5.395"/>
  <path class="cls-1" d="M128.544,30.572a7.531,7.531,0,0,1-.448,2.6,6.79,6.79,0,0,1-1.245,2.151,6.31,6.31,0,0,1-1.948,1.5,5.591,5.591,0,0,1-2.555.58,5.081,5.081,0,0,1-3.162-.99q-1.31-.988-1.309-3.517a5.481,5.481,0,0,1,.479-2.458,3.786,3.786,0,0,1,1.309-1.5,5.214,5.214,0,0,1,1.853-.751,11.066,11.066,0,0,1,2.171-.205,15.051,15.051,0,0,1,4.855.615v1.98Zm6.738-12.838a8.468,8.468,0,0,0-2.811-3.312,11.179,11.179,0,0,0-4.055-1.673,24.807,24.807,0,0,0-11.785.512A21.191,21.191,0,0,0,112.7,14.92l0.943,5.749A18.285,18.285,0,0,1,116.759,19a14.724,14.724,0,0,1,5.844-1.058,8.244,8.244,0,0,1,4.312.99,3.709,3.709,0,0,1,1.629,3.449V24.29a24.77,24.77,0,0,0-3.162-.649,26.9,26.9,0,0,0-3.737-.239,18.615,18.615,0,0,0-4.183.478,10.6,10.6,0,0,0-3.737,1.639,8.712,8.712,0,0,0-2.682,3.039,9.528,9.528,0,0,0-1.022,4.609,8.829,8.829,0,0,0,2.427,6.488,9.17,9.17,0,0,0,6.834,2.458,12.492,12.492,0,0,0,5.4-1.024,9.622,9.622,0,0,0,3.609-3h0.319q0.128,1.093.256,1.844a9.538,9.538,0,0,0,.447,1.639h7.026V23.129a12.1,12.1,0,0,0-1.054-5.395"/>
  <path class="cls-1" d="M48.571,30.572a7.531,7.531,0,0,1-.448,2.6,6.79,6.79,0,0,1-1.245,2.151,6.31,6.31,0,0,1-1.948,1.5,5.591,5.591,0,0,1-2.555.58,5.081,5.081,0,0,1-3.162-.99q-1.31-.988-1.309-3.517a5.481,5.481,0,0,1,.479-2.458,3.786,3.786,0,0,1,1.309-1.5,5.214,5.214,0,0,1,1.853-.751,11.066,11.066,0,0,1,2.171-.205,15.051,15.051,0,0,1,4.855.615v1.98Zm6.738-12.838A8.468,8.468,0,0,0,52.5,14.422a11.179,11.179,0,0,0-4.055-1.673,24.807,24.807,0,0,0-11.785.512,21.191,21.191,0,0,0-3.929,1.659l0.943,5.749A18.285,18.285,0,0,1,36.786,19a14.724,14.724,0,0,1,5.844-1.058,8.244,8.244,0,0,1,4.312.99,3.709,3.709,0,0,1,1.629,3.449V24.29a24.77,24.77,0,0,0-3.162-.649,26.9,26.9,0,0,0-3.737-.239,18.615,18.615,0,0,0-4.183.478,10.6,10.6,0,0,0-3.737,1.639,8.712,8.712,0,0,0-2.682,3.039,9.528,9.528,0,0,0-1.022,4.609,8.829,8.829,0,0,0,2.427,6.488,9.17,9.17,0,0,0,6.834,2.458,12.492,12.492,0,0,0,5.4-1.024,9.622,9.622,0,0,0,3.609-3h0.319q0.128,1.093.256,1.844a9.538,9.538,0,0,0,.447,1.639h7.026V23.129a12.1,12.1,0,0,0-1.054-5.395"/>
</svg>
