<svg id="Layer_1" data-name="Layer 1" xmlns="http://www.w3.org/2000/svg" viewBox="0 0 128.365 19.756">
  <defs>
    <style>
      .cls-1 {
        fill: none;
        stroke: #099;
        stroke-miterlimit: 10;
        stroke-width: 3px;
      }
    </style>
  </defs>
  <title>94f346ee-2ee0-4d50-9a7f-c771585f9fd0</title>
  <g>
    <line class="cls-1" x1="1.5" y1="3.738" x2="1.5" y2="19.756"/>
    <line class="cls-1" x1="5.823" y1="7.476" x2="5.823" y2="19.756"/>
    <line class="cls-1" x1="10.146" y1="7.476" x2="10.146" y2="19.756"/>
    <line class="cls-1" x1="14.469" y1="3.738" x2="14.469" y2="19.756"/>
    <line class="cls-1" x1="18.792" y1="3.738" x2="18.792" y2="19.756"/>
    <line class="cls-1" x1="23.115" y1="6.23" x2="23.115" y2="19.756"/>
    <line class="cls-1" x1="27.438" y1="2.492" x2="27.438" y2="19.756"/>
    <line class="cls-1" x1="31.76" y1="2.492" x2="31.76" y2="19.756"/>
    <line class="cls-1" x1="36.083" y1="2.492" x2="36.083" y2="19.756"/>
    <line class="cls-1" x1="40.406" y1="1.246" x2="40.406" y2="19.756"/>
    <line class="cls-1" x1="44.729" y1="1.246" x2="44.729" y2="19.756"/>
    <line class="cls-1" x1="49.052" x2="49.052" y2="19.756"/>
    <line class="cls-1" x1="53.375" y1="2.492" x2="53.375" y2="19.756"/>
    <line class="cls-1" x1="57.698" x2="57.698" y2="19.756"/>
    <line class="cls-1" x1="62.021" y1="2.492" x2="62.021" y2="19.756"/>
    <line class="cls-1" x1="66.344" y1="4.984" x2="66.344" y2="19.756"/>
    <line class="cls-1" x1="70.667" y1="7.476" x2="70.667" y2="19.756"/>
    <line class="cls-1" x1="74.99" y1="4.984" x2="74.99" y2="19.756"/>
    <line class="cls-1" x1="79.313" y1="2.492" x2="79.313" y2="19.756"/>
    <line class="cls-1" x1="83.636" y1="1.246" x2="83.636" y2="19.756"/>
    <line class="cls-1" x1="87.959" y1="2.492" x2="87.959" y2="19.756"/>
    <line class="cls-1" x1="92.281" y1="6.23" x2="92.281" y2="19.756"/>
    <line class="cls-1" x1="96.604" y1="1.246" x2="96.604" y2="19.756"/>
    <line class="cls-1" x1="100.927" y1="1.246" x2="100.927" y2="19.756"/>
    <line class="cls-1" x1="105.25" y1="1.246" x2="105.25" y2="19.756"/>
    <line class="cls-1" x1="109.573" x2="109.573" y2="19.756"/>
    <line class="cls-1" x1="113.896" y1="2.492" x2="113.896" y2="19.756"/>
    <line class="cls-1" x1="118.219" y1="2.492" x2="118.219" y2="19.756"/>
    <line class="cls-1" x1="122.542" y1="2.492" x2="122.542" y2="19.756"/>
    <line class="cls-1" x1="126.865" y1="8.722" x2="126.865" y2="19.756"/>
  </g>
</svg>
