<svg id="Layer_1" data-name="Layer 1" xmlns="http://www.w3.org/2000/svg" viewBox="0 0 11.572 23.841">
  <defs>
    <style>
      .cls-1 {
        fill: aqua;
      }
    </style>
  </defs>
  <title>576369eb-9c81-4a5a-9bb9-ce0024ae2117</title>
  <g>
    <path class="cls-1" d="M0.774,16.036a0.316,0.316,0,0,1,.1-0.23l4.681-4.681a0.315,0.315,0,0,1,.462,0L10.7,15.806a0.315,0.315,0,0,1,0,.462l-0.5.5a0.321,0.321,0,0,1-.231.1,0.317,0.317,0,0,1-.23-0.1L5.786,12.822,1.838,16.771a0.317,0.317,0,0,1-.23.1,0.321,0.321,0,0,1-.231-0.1l-0.5-.5A0.316,0.316,0,0,1,.774,16.036Z"/>
    <path class="cls-1" d="M10.8,7.8a0.318,0.318,0,0,1-.1.231L6.017,12.716a0.315,0.315,0,0,1-.462,0L0.874,8.035A0.318,0.318,0,0,1,.773,7.8a0.314,0.314,0,0,1,.1-0.23l0.5-.5a0.322,0.322,0,0,1,.231-0.1,0.318,0.318,0,0,1,.23.1l3.948,3.948L9.733,7.07a0.318,0.318,0,0,1,.23-0.1,0.322,0.322,0,0,1,.231.1l0.5,0.5A0.314,0.314,0,0,1,10.8,7.8Z"/>
  </g>
</svg>
