<!-- Generator: Adobe Illustrator 19.2.1, SVG Export Plug-In  -->
<svg version="1.1"
	 xmlns="http://www.w3.org/2000/svg" xmlns:xlink="http://www.w3.org/1999/xlink" xmlns:a="http://ns.adobe.com/AdobeSVGViewerExtensions/3.0/"
	 x="0px" y="0px" width="217.4px" height="53.8px" viewBox="0 0 217.4 53.8" style="enable-background:new 0 0 217.4 53.8;"
	 xml:space="preserve">
<style type="text/css">
	.st0{fill:#6D6E71;}
</style>
<defs>
</defs>
<path class="st0" d="M79.9,41.6V26c0-1.1-0.1-2.1-0.2-2.9s-0.3-1.6-0.7-2.2c-0.3-0.6-0.8-1.1-1.4-1.4c-0.6-0.3-1.4-0.5-2.4-0.5
	c-1.8,0-3.1,0.6-3.9,1.8c-0.8,1.2-1.2,2.7-1.2,4.5v16.4h-7.9V13h7.6v3.6h0.3c0.8-1.2,1.9-2.2,3.1-3c1.3-0.8,2.9-1.2,5-1.2
	c2.2,0,4,0.5,5.3,1.4c1.3,1,2.4,2.2,3,3.7c1.2-1.8,2.6-3.1,4.1-3.9c1.5-0.8,3.2-1.2,5.3-1.2c3.2,0,5.6,1,7.2,2.9
	c1.6,1.9,2.4,4.4,2.4,7.5v18.9h-7.9V26c0-1.1-0.1-2.1-0.2-2.9c-0.1-0.9-0.3-1.6-0.7-2.2c-0.3-0.6-0.8-1.1-1.4-1.4
	c-0.6-0.3-1.4-0.5-2.4-0.5c-1.8,0-3.2,0.6-4,1.8c-0.8,1.2-1.2,2.8-1.2,4.6v16.3H79.9z"/>
<path class="st0" d="M162.1,26c0-2.2-0.4-3.9-1.1-5.2c-0.7-1.3-2.1-1.9-4.3-1.9c-1.8,0-3.2,0.6-4.3,1.8c-1.1,1.2-1.6,2.7-1.6,4.5
	v16.4h-7.9V13h7.6v3.6h0.3c0.9-1.3,2.2-2.3,3.7-3.1c1.5-0.8,3.3-1.2,5.4-1.2c3.2,0,5.7,1,7.4,2.9c1.7,1.9,2.5,4.4,2.5,7.5v18.9h-7.9
	V26z"/>
<polygon class="st0" points="7.9,23.8 7.9,0.9 0,0.9 0,41.6 7.9,41.6 7.9,29 "/>
<polygon class="st0" points="16.6,25.7 28.7,12.8 19.6,12.8 9.3,23.9 9.3,27 20.4,41.6 28.8,41.6 "/>
<path class="st0" d="M181.6,8.7c1.4,0,2.5-0.4,3.4-1.2c0.9-0.8,1.3-1.9,1.3-3.1c0-1.3-0.4-2.3-1.3-3.1c-0.9-0.8-2-1.2-3.4-1.2
	c-1.3,0-2.4,0.4-3.4,1.2c-0.9,0.8-1.4,1.9-1.4,3.1c0,1.3,0.5,2.3,1.4,3.1C179.2,8.3,180.3,8.7,181.6,8.7"/>
<path class="st0" d="M177.8,40.9c0,2.5-0.4,4.2-1.1,5.3c-0.7,1.1-1.8,1.6-3.3,1.6c-0.7,0-1.3-0.1-1.9-0.2l-1.7,5.5
	c0.4,0.1,0.7,0.2,1.1,0.3c1.3,0.3,2.6,0.5,4,0.5c3.6,0,6.3-1,8.1-3c1.8-2,2.6-4.9,2.6-8.5V13.4h-7.9V40.9z"/>
<path class="st0" d="M209.6,30.6c0,0.9-0.1,1.8-0.4,2.6c-0.3,0.8-0.7,1.5-1.2,2.2c-0.5,0.6-1.2,1.1-1.9,1.5
	c-0.8,0.4-1.6,0.6-2.6,0.6c-1.2,0-2.3-0.3-3.2-1c-0.9-0.7-1.3-1.8-1.3-3.5c0-1,0.2-1.8,0.5-2.5c0.3-0.6,0.8-1.1,1.3-1.5
	c0.6-0.4,1.2-0.6,1.9-0.8c0.7-0.1,1.4-0.2,2.2-0.2c2.1,0,3.7,0.2,4.9,0.6V30.6z M216.3,17.7c-0.7-1.4-1.6-2.5-2.8-3.3
	c-1.2-0.8-2.5-1.4-4.1-1.7c-1.5-0.3-3.1-0.5-4.8-0.5c-2.6,0-4.9,0.3-7,1c-1.5,0.5-2.8,1-3.9,1.7l0.9,5.7c0.9-0.6,1.9-1.1,3.1-1.7
	c1.6-0.7,3.6-1.1,5.8-1.1c1.8,0,3.2,0.3,4.3,1c1.1,0.7,1.6,1.8,1.6,3.4v1.9c-1-0.3-2-0.5-3.2-0.6c-1.1-0.2-2.4-0.2-3.7-0.2
	c-1.4,0-2.8,0.2-4.2,0.5c-1.4,0.3-2.6,0.9-3.7,1.6c-1.1,0.8-2,1.8-2.7,3c-0.7,1.3-1,2.8-1,4.6c0,2.7,0.8,4.8,2.4,6.5
	c1.6,1.6,3.9,2.5,6.8,2.5c2.2,0,4-0.3,5.4-1c1.4-0.7,2.6-1.7,3.6-3h0.3c0.1,0.7,0.2,1.3,0.3,1.8c0.1,0.5,0.2,1,0.4,1.6h7v-4.4v-4.4
	v-9.7C217.4,20.9,217,19.1,216.3,17.7"/>
<path class="st0" d="M128.5,30.6c0,0.9-0.2,1.8-0.4,2.6c-0.3,0.8-0.7,1.5-1.2,2.2c-0.5,0.6-1.2,1.1-1.9,1.5
	c-0.8,0.4-1.6,0.6-2.6,0.6c-1.2,0-2.3-0.3-3.2-1c-0.9-0.7-1.3-1.8-1.3-3.5c0-1,0.2-1.8,0.5-2.5c0.3-0.6,0.8-1.1,1.3-1.5
	c0.6-0.4,1.2-0.6,1.9-0.8c0.7-0.1,1.4-0.2,2.2-0.2c2.1,0,3.7,0.2,4.9,0.6V30.6z M135.3,17.7c-0.7-1.4-1.6-2.5-2.8-3.3
	c-1.2-0.8-2.5-1.4-4.1-1.7c-1.5-0.3-3.1-0.5-4.8-0.5c-2.6,0-4.9,0.3-7,1c-1.5,0.5-2.8,1-3.9,1.7l0.9,5.7c0.9-0.6,1.9-1.1,3.1-1.7
	c1.6-0.7,3.6-1.1,5.8-1.1c1.8,0,3.2,0.3,4.3,1c1.1,0.7,1.6,1.8,1.6,3.4v1.9c-1-0.3-2-0.5-3.2-0.6c-1.1-0.2-2.4-0.2-3.7-0.2
	c-1.4,0-2.8,0.2-4.2,0.5c-1.4,0.3-2.6,0.9-3.7,1.6c-1.1,0.8-2,1.8-2.7,3c-0.7,1.3-1,2.8-1,4.6c0,2.7,0.8,4.8,2.4,6.5
	c1.6,1.6,3.9,2.5,6.8,2.5c2.2,0,4-0.3,5.4-1c1.4-0.7,2.6-1.7,3.6-3h0.3c0.1,0.7,0.2,1.3,0.3,1.8c0.1,0.5,0.2,1,0.4,1.6h7v-4.4v-4.4
	v-9.7C136.3,20.9,136,19.1,135.3,17.7"/>
<path class="st0" d="M48.6,30.6c0,0.9-0.2,1.8-0.4,2.6c-0.3,0.8-0.7,1.5-1.2,2.2c-0.5,0.6-1.2,1.1-1.9,1.5c-0.8,0.4-1.6,0.6-2.6,0.6
	c-1.2,0-2.3-0.3-3.2-1c-0.9-0.7-1.3-1.8-1.3-3.5c0-1,0.2-1.8,0.5-2.5c0.3-0.6,0.8-1.1,1.3-1.5c0.6-0.4,1.2-0.6,1.9-0.8
	C42.2,28,43,28,43.7,28c2.1,0,3.7,0.2,4.9,0.6V30.6z M55.3,17.7c-0.7-1.4-1.6-2.5-2.8-3.3c-1.2-0.8-2.5-1.4-4.1-1.7
	c-1.5-0.3-3.1-0.5-4.8-0.5c-2.6,0-4.9,0.3-7,1c-1.5,0.5-2.8,1-3.9,1.7l0.9,5.7c0.9-0.6,1.9-1.1,3.1-1.7c1.6-0.7,3.6-1.1,5.8-1.1
	c1.8,0,3.2,0.3,4.3,1c1.1,0.7,1.6,1.8,1.6,3.4v1.9c-1-0.3-2-0.5-3.2-0.6c-1.1-0.2-2.4-0.2-3.7-0.2c-1.4,0-2.8,0.2-4.2,0.5
	c-1.4,0.3-2.6,0.9-3.7,1.6c-1.1,0.8-2,1.8-2.7,3c-0.7,1.3-1,2.8-1,4.6c0,2.7,0.8,4.8,2.4,6.5c1.6,1.6,3.9,2.5,6.8,2.5
	c2.2,0,4-0.3,5.4-1c1.4-0.7,2.6-1.7,3.6-3h0.3c0.1,0.7,0.2,1.3,0.3,1.8c0.1,0.5,0.2,1,0.4,1.6h7v-4.4v-4.4v-9.7
	C56.4,20.9,56,19.1,55.3,17.7"/>
</svg>
