<!-- Generator: Adobe Illustrator 19.2.1, SVG Export Plug-In  -->
<svg version="1.1"
	 xmlns="http://www.w3.org/2000/svg" xmlns:xlink="http://www.w3.org/1999/xlink" xmlns:a="http://ns.adobe.com/AdobeSVGViewerExtensions/3.0/"
	 x="0px" y="0px" width="202.9px" height="27px" viewBox="0 0 202.9 27" style="enable-background:new 0 0 202.9 27;"
	 xml:space="preserve">
<style type="text/css">
	.st0{fill:none;stroke:#00FFFF;stroke-miterlimit:10;}
</style>
<defs>
</defs>
<g>
	<line class="st0" x1="0.5" y1="6" x2="0.5" y2="27"/>
	<line class="st0" x1="5.1" y1="16" x2="5.1" y2="27"/>
	<line class="st0" x1="9.7" y1="8" x2="9.7" y2="27"/>
	<line class="st0" x1="14.3" y1="0" x2="14.3" y2="27"/>
	<line class="st0" x1="18.9" y1="4" x2="18.9" y2="27"/>
	<line class="st0" x1="23.4" y1="0" x2="23.4" y2="27"/>
	<line class="st0" x1="28" y1="5" x2="28" y2="27"/>
	<line class="st0" x1="32.6" y1="10" x2="32.6" y2="27"/>
	<line class="st0" x1="37.2" y1="14" x2="37.2" y2="27"/>
	<line class="st0" x1="41.8" y1="4" x2="41.8" y2="27"/>
	<line class="st0" x1="46.4" y1="6" x2="46.4" y2="27"/>
	<line class="st0" x1="51" y1="11" x2="51" y2="27"/>
	<line class="st0" x1="55.6" y1="7" x2="55.6" y2="27"/>
	<line class="st0" x1="60.2" y1="0" x2="60.2" y2="27"/>
	<line class="st0" x1="64.7" y1="6" x2="64.7" y2="27"/>
	<line class="st0" x1="69.3" y1="10" x2="69.3" y2="27"/>
	<line class="st0" x1="73.9" y1="4" x2="73.9" y2="27"/>
	<line class="st0" x1="78.5" y1="12" x2="78.5" y2="27"/>
	<line class="st0" x1="83.1" y1="8" x2="83.1" y2="27"/>
	<line class="st0" x1="87.7" y1="0" x2="87.7" y2="27"/>
	<line class="st0" x1="92.3" y1="9" x2="92.3" y2="27"/>
	<line class="st0" x1="96.9" y1="13" x2="96.9" y2="27"/>
	<line class="st0" x1="101.4" y1="4" x2="101.4" y2="27"/>
	<line class="st0" x1="106" y1="13" x2="106" y2="27"/>
	<line class="st0" x1="110.6" y1="9" x2="110.6" y2="27"/>
	<line class="st0" x1="115.2" y1="0" x2="115.2" y2="27"/>
	<line class="st0" x1="119.8" y1="12" x2="119.8" y2="27"/>
	<line class="st0" x1="124.4" y1="4" x2="124.4" y2="27"/>
	<line class="st0" x1="129" y1="0" x2="129" y2="27"/>
	<line class="st0" x1="133.6" y1="3" x2="133.6" y2="27"/>
	<line class="st0" x1="138.2" y1="8" x2="138.2" y2="27"/>
	<line class="st0" x1="142.7" y1="0" x2="142.7" y2="27"/>
	<line class="st0" x1="147.3" y1="3" x2="147.3" y2="27"/>
	<line class="st0" x1="151.9" y1="8" x2="151.9" y2="27"/>
	<line class="st0" x1="156.5" y1="3" x2="156.5" y2="27"/>
	<line class="st0" x1="161.1" y1="8" x2="161.1" y2="27"/>
	<line class="st0" x1="165.7" y1="2" x2="165.7" y2="27"/>
	<line class="st0" x1="170.3" y1="2" x2="170.3" y2="27"/>
	<line class="st0" x1="174.9" y1="3" x2="174.9" y2="27"/>
	<line class="st0" x1="179.5" y1="5" x2="179.5" y2="27"/>
	<line class="st0" x1="184" y1="4" x2="184" y2="27"/>
	<line class="st0" x1="188.6" y1="1" x2="188.6" y2="27"/>
	<line class="st0" x1="193.2" y1="4" x2="193.2" y2="27"/>
	<line class="st0" x1="197.8" y1="8" x2="197.8" y2="27"/>
	<line class="st0" x1="202.4" y1="5" x2="202.4" y2="27"/>
</g>
</svg>
